<?xml version="1.0" encoding="UTF-8" standalone="no"?>
<!DOCTYPE svg  PUBLIC '-//W3C//DTD SVG 1.1//EN'  'http://www.w3.org/Graphics/SVG/1.1/DTD/svg11.dtd'>
<svg version="1.1" xmlns="http://www.w3.org/2000/svg">
<defs>
<font id="PierSans-Regular" horiz-adv-x="500">
<font-face font-family="PierSans" underline-position="0" underline-thickness="0" font-weight="400" bbox="-30 -274 1030 996" unicode-range="U+0020-2212" panose-1="2 0 5 5 0 0 0 2 0 3" x-height="494" units-per-em="1000" cap-height="750" ascent="800" descent="-200"/>
<missing-glyph d="M100 -205h300v905h-300v-905zM50 -255v1005h400v-1005h-400z"/>
<glyph glyph-name=".notdef" d="M100 -205h300v905h-300v-905zM50 -255v1005h400v-1005h-400z"/>
<glyph horiz-adv-x="0" glyph-name=".null"/>
<glyph horiz-adv-x="333" glyph-name="nonmarkingreturn"/>
<glyph horiz-adv-x="300" unicode=" " glyph-name="space"/>
<glyph horiz-adv-x="323" unicode="!" glyph-name="exclam" d="M218 37q0 -24 -16.5 -40.5t-40.5 -16.5q-23 0 -39.5 16.5t-16.5 40.5q0 23 16.5 39.5t39.5 16.5q24 0 40.5 -16.5t16.5 -39.5zM223 750l-10 -564h-103l-10 564h123z"/>
<glyph horiz-adv-x="423" unicode='&quot;' glyph-name="quotedbl" d="M383 641q0 -25 -12 -41l-94 -136h-34l37 114q-37 20 -37 63q0 29 20.5 49t48.5 20q30 0 50.5 -20t20.5 -49zM200 641q0 -25 -12 -41l-94 -136h-34l37 114q-37 20 -37 63q0 29 20 49t49 20q30 0 50.5 -20t20.5 -49z"/>
<glyph horiz-adv-x="967" unicode="#" glyph-name="numbersign" d="M530 255l52 140h-182l-51 -140h181zM867 395h-180l-52 -140h139v-99h-175l-57 -156h-105l57 156h-182l-57 -156h-105l58 156h-108v99h144l52 140h-103v99h139l59 161h104l-59 -161h182l60 161h104l-59 -161h144v-99z"/>
<glyph horiz-adv-x="657" unicode="$" glyph-name="dollar" d="M373 -130h-64v120q-154 9 -259 124l74 74q24 -43 76.5 -71t108.5 -34v262q-104 32 -141 55q-55 34 -75 88q-11 29 -11 65q0 49 23 93q31 59 90.5 83.5t113.5 28.5v122h64v-124q137 -16 233 -122l-73 -73q-52 76 -160 102v-242q105 -31 142 -53q58 -35 80 -93 q12 -24 12 -69q0 -41 -16 -77q-24 -56 -81.5 -92t-136.5 -44v-123zM489 243q-8 22 -26.5 38t-35.5 23t-54 20v-238q87 15 114 79q8 19 8 41q0 31 -6 37zM198 519q8 -21 25.5 -36t33 -21.5t52.5 -19.5v223q-76 -8 -104 -62q-12 -23 -12 -51q0 -16 5 -33z"/>
<glyph horiz-adv-x="838" unicode="%" glyph-name="percent" d="M334 0h-105l276 750h104zM637 340q71 0 121 -49.5t50 -120.5t-50 -121t-121 -50q-70 0 -120 50t-50 121q0 70 49.5 120t120.5 50zM637 250q-33 0 -56.5 -23.5t-23.5 -56.5q0 -34 23.5 -57.5t56.5 -23.5q34 0 57.5 23.5t23.5 57.5q0 33 -23.5 56.5t-57.5 23.5zM200 750 q71 0 121 -50t50 -121t-50 -120.5t-121 -49.5q-70 0 -120 49.5t-50 120.5t50 121t120 50zM200 660q-33 0 -56.5 -24t-23.5 -57t23.5 -56.5t56.5 -23.5q34 0 57.5 23.5t23.5 56.5t-23.5 57t-57.5 24z"/>
<glyph horiz-adv-x="737" unicode="&amp;" glyph-name="ampersand" d="M287 93q100 0 157 45l-227 254q-38 -21 -61 -59.5t-23 -85.5q0 -67 44.5 -110.5t109.5 -43.5zM287 655q-29 0 -49.5 -22.5t-20.5 -53.5t20.5 -53.5t49.5 -22.5t49.5 22t20.5 54t-20.5 54t-49.5 22zM707 0h-141l-53 60q-43 -39 -94 -54.5t-133 -15.5q-107 1 -181.5 74.5 t-74.5 182.5q0 71 33.5 131.5t90.5 96.5q-40 50 -40 114q0 73 50.5 121.5t122.5 48.5q73 0 123 -48.5t50 -121.5q0 -64 -39 -114q-18 -25 -57 -45q-17 -8 -31 -12l175 -196q21 41 28 80l102 -18q-11 -58 -38 -111q-6 -14 -19 -33z"/>
<glyph horiz-adv-x="250" unicode="&apos;" glyph-name="quotesingle" d="M200 641q0 -25 -12 -41l-94 -136h-34l37 114q-37 20 -37 63q0 29 20 49t49 20q30 0 50.5 -20t20.5 -49z"/>
<glyph horiz-adv-x="368" unicode="(" glyph-name="parenleft" d="M190 329q0 -81 17 -152.5t38.5 -115t50.5 -80.5t44 -50.5t28 -22.5l-46 -82q-242 171 -242 503q0 333 242 502l46 -81q-13 -9 -28 -22.5t-44 -50.5t-50.5 -81t-38.5 -115t-17 -152z"/>
<glyph horiz-adv-x="388" unicode=")" glyph-name="parenright" d="M178 329q0 81 -17 152t-38.5 115t-50.5 81t-44 50.5t-28 22.5l46 81q242 -169 242 -502q0 -332 -242 -503l-46 82q13 9 28 22.5t44 50.5t50.5 80.5t38.5 115t17 152.5z"/>
<glyph horiz-adv-x="320" unicode="*" glyph-name="asterisk" d="M290 639v-60h-78l42 -72l-52 -30l-42 72l-43 -72l-52 30l43 72h-78v60h78l-42 73l52 30l42 -73l42 73l52 -30l-42 -73h78z"/>
<glyph horiz-adv-x="546" unicode="+" glyph-name="plus" d="M446 205h-136v-136h-84v136h-136v84h136v136h84v-136h136v-84z"/>
<glyph horiz-adv-x="190" unicode="," glyph-name="comma" d="M180 63q0 -25 -12 -41l-94 -136h-34l37 114q-37 20 -37 63q0 29 20 49t49 20q30 0 50.5 -20t20.5 -49z"/>
<glyph horiz-adv-x="536" unicode="-" glyph-name="hyphen" d="M446 301v-84h-356v84h356z"/>
<glyph horiz-adv-x="261" unicode="." glyph-name="period" d="M201 61q0 -30 -20.5 -50.5t-50.5 -20.5q-29 0 -49.5 20.5t-20.5 50.5q0 29 20.5 49t49.5 20q30 0 50.5 -20t20.5 -49z"/>
<glyph horiz-adv-x="360" unicode="/" glyph-name="slash" d="M95 0h-105l276 750h104z"/>
<glyph horiz-adv-x="711" unicode="0" glyph-name="zero" d="M546 247v255q0 67 -44.5 110t-109.5 43t-109.5 -43t-44.5 -110v-255q0 -67 44.5 -110.5t109.5 -43.5t109.5 43.5t44.5 110.5zM649 506h1v-263h-1q-1 -109 -75.5 -181t-181.5 -72t-181.5 72t-75.5 181v263q1 108 75.5 180.5t181.5 72.5t181.5 -72.5t75.5 -180.5z"/>
<glyph horiz-adv-x="383" unicode="1" glyph-name="one" d="M110 750h223v-750h-111v658h-112v92z"/>
<glyph horiz-adv-x="659" unicode="2" glyph-name="two" d="M520 323q-47 -63 -167 -174q-36 -34 -65 -57h291v-92h-458v92q80 55 161 133q118 111 155 160q56 77 56 134t-27 91q-15 19 -38 30.5t-35.5 13.5t-19.5 2h-6q-43 0 -75 -25q-49 -33 -66 -98l-101 22q23 106 109 163q63 42 134 42h9q107 -6 171 -85q49 -62 49 -156 q0 -46 -21 -100q-21 -49 -56 -96z"/>
<glyph horiz-adv-x="611" unicode="3" glyph-name="three" d="M384 495q75 -30 122 -97.5t47 -150.5q0 -110 -78 -183.5t-189 -73.5q-65 0 -121.5 29.5t-93.5 79.5l100 43q48 -48 115 -48q71 0 117 40.5t46 112.5q0 66 -47.5 114t-115.5 48h-79l182 248h-231v93h413z"/>
<glyph horiz-adv-x="675" unicode="4" glyph-name="four" d="M241 291h212v301zM564 0h-111v199h-351v81l343 470h119v-459h60v-92h-60v-199z"/>
<glyph horiz-adv-x="626" unicode="5" glyph-name="five" d="M361 511q96 -13 158.5 -88t62.5 -174q0 -19 -3 -38q-14 -98 -86.5 -159.5t-168.5 -61.5q-18 0 -38 3q-106 15 -171 106l83 62q37 -56 103 -65q16 -2 24 -2q57 0 99.5 36t51.5 96q2 16 2 25q0 59 -37.5 104.5t-94.5 53.5q-7 1 -21 1q-41 0 -76 -22q-2 -1 -6 -3.5t-6 -3.5 h-99v369h368v-92h-257v-156q36 12 76 12q18 0 36 -3z"/>
<glyph horiz-adv-x="659" unicode="6" glyph-name="six" d="M367 94q65 0 109.5 43.5t44.5 109.5q0 68 -45 116t-109 48t-109 -48t-45 -116q0 -66 44.5 -109.5t109.5 -43.5zM367 514q107 0 182 -78t75 -189q0 -109 -75 -182.5t-182 -73.5q-108 0 -183 73.5t-75 182.5q0 72 36 135l207 368h119l-134 -238q10 2 30 2z"/>
<glyph horiz-adv-x="535" unicode="7" glyph-name="seven" d="M105 750h540l-418 -750h-122l369 658h-369v92z"/>
<glyph horiz-adv-x="679" unicode="8" glyph-name="eight" d="M383 93q65 0 109.5 43.5t44.5 109.5q0 67 -44.5 110.5t-109.5 43.5t-109.5 -43.5t-44.5 -110.5q0 -66 44.5 -109.5t109.5 -43.5zM313 579q0 -32 20.5 -54t49.5 -22t49.5 22.5t20.5 53.5t-20.5 53.5t-49.5 22.5t-49.5 -22t-20.5 -54zM516 465q124 -78 124 -219 q0 -109 -75 -182.5t-182 -73.5q-108 0 -183 73.5t-75 182.5q0 140 124 219q-39 48 -39 114q0 74 50.5 127t122.5 53q71 0 122 -53t51 -127q0 -64 -40 -114z"/>
<glyph horiz-adv-x="671" unicode="9" glyph-name="nine" d="M213 503q0 -67 45 -115t109 -48t109 48t45 115t-44.5 110t-109.5 43t-109.5 -43t-44.5 -110zM625 503q0 -71 -35 -135l-208 -368h-118l133 238q-20 -2 -30 -2q-106 0 -181.5 78.5t-75.5 188.5q0 109 75 183t182 74t182.5 -74t75.5 -183z"/>
<glyph horiz-adv-x="241" unicode=":" glyph-name="colon" d="M191 61q0 -30 -20.5 -50.5t-50.5 -20.5q-29 0 -49.5 20.5t-20.5 50.5q0 29 20.5 49t49.5 20q30 0 50.5 -20t20.5 -49zM191 383q0 -30 -20.5 -50.5t-50.5 -20.5q-29 0 -49.5 20.5t-20.5 50.5q0 29 20.5 49t49.5 20q30 0 50.5 -20t20.5 -49z"/>
<glyph horiz-adv-x="241" unicode=";" glyph-name="semicolon" d="M191 383q0 -30 -20.5 -50.5t-50.5 -20.5q-29 0 -49.5 20.5t-20.5 50.5q0 29 20.5 49t49.5 20q30 0 50.5 -20t20.5 -49zM191 63q0 -25 -12 -41l-94 -136h-34l37 114q-37 20 -37 63q0 29 20.5 49t48.5 20q30 0 50.5 -20t20.5 -49z"/>
<glyph horiz-adv-x="484" unicode="&lt;" glyph-name="less" d="M60 248v63l364 248v-104l-262 -176l262 -175v-104z"/>
<glyph horiz-adv-x="546" unicode="=" glyph-name="equal" d="M446 210v-84h-356v84h356zM446 371v-84h-356v84h356z"/>
<glyph horiz-adv-x="484" unicode="&gt;" glyph-name="greater" d="M424 311v-63l-364 -248v104l262 175l-262 176v104z"/>
<glyph horiz-adv-x="549" unicode="?" glyph-name="question" d="M334 157h-104v7q0 78 30 146q13 28 27.5 46t39 38t29.5 25q18 18 25.5 26t16 22.5t12.5 30.5q5 20 5 32t-3 27q-6 37 -26 63q-33 42 -89 45h-4q-68 0 -108 -51q-26 -34 -32 -85l-103 10q6 77 56 136q49 55 123 75q33 8 61 8q3 0 8 -0.5t6 -0.5q36 -2 69 -14 q55 -20 92 -63t50 -106q4 -30 4 -41q0 -27 -9 -58q-7 -28 -23.5 -53.5t-27.5 -36.5t-34 -32q-51 -43 -70 -86q-21 -47 -21 -103v-7zM340 37q0 -24 -16.5 -40.5t-40.5 -16.5q-23 0 -39.5 16.5t-16.5 40.5q0 23 16.5 39.5t39.5 16.5q24 0 40.5 -16.5t16.5 -39.5z"/>
<glyph horiz-adv-x="979" unicode="@" glyph-name="at" d="M515 -141q32 0 69 8q29 7 59 23l28 -54q-34 -18 -73 -27q-37 -10 -80 -10h-3q-99 2 -187 39q-82 35 -149 102q-63 64 -95 142q-34 80 -34 161v7q0 78 33 157q31 72 86 131q56 57 122 94q67 36 144 49q36 4 63 4q33 0 65 -4q60 -10 109 -29q67 -29 115 -71 q68 -59 104 -143q28 -66 36 -147q2 -26 2 -47q0 -68 -16 -139q-21 -94 -67 -144.5t-102 -50.5q-69 0 -105.5 39.5t-36.5 74.5v2q-59 -48 -132 -48q-106 0 -181.5 78.5t-75.5 188.5t75 188t182 78q69 0 132 -47v28h104v-402q0 -90 38 -90q27 0 49 15.5t34.5 38.5t18.5 38 t9 26q14 60 14 123q0 19 -2 45q-14 157 -120 250q-102 89 -251 89q-36 0 -51 -3q-67 -11 -125 -43q-62 -34 -107 -82q-48 -51 -75 -113q-28 -67 -28 -135v-7q0 -68 29 -137q28 -67 82 -122q57 -58 131 -90q75 -32 163 -34zM470 63q42 0 77 24t55 65q22 42 22 93t-22 93 q-20 40 -55.5 64.5t-76.5 24.5q-63 0 -108 -53.5t-45 -128.5q0 -76 45 -129t108 -53z"/>
<glyph horiz-adv-x="694" unicode="A" glyph-name="A" d="M229 288h225l-112 296zM376 750l308 -750h-120l-75 196h-295l-74 -196h-120l308 750h68z"/>
<glyph horiz-adv-x="700" unicode="B" glyph-name="B" d="M397 92q46 0 79 40.5t33 97.5q0 55 -31.5 95.5t-75.5 42.5h-5h-186v-276h186zM211 658v-198h186h3q28 2 48 31.5t20 68.5q0 40 -21 69t-50 29h-186zM522 421q45 -31 71.5 -81.5t26.5 -109.5q0 -95 -65.5 -162.5t-157.5 -67.5h-297v750h297q76 0 129 -56t53 -134 q0 -82 -57 -139z"/>
<glyph horiz-adv-x="769" unicode="C" glyph-name="C" d="M635 177l73 -73q-104 -114 -277 -114q-159 0 -270 111t-111 274q0 162 111 273t270 111q173 0 278 -115l-73 -73q-32 47 -87 71.5t-118 24.5q-114 0 -192 -87t-78 -205q0 -72 32 -138.5t95.5 -110.5t142.5 -44q60 0 118 24t86 71z"/>
<glyph horiz-adv-x="792" unicode="D" glyph-name="D" d="M370 92q104 0 176 81q75 84 75 202t-75 201q-73 82 -176 82h-179v-566h179zM732 375q0 -155 -105.5 -264.5t-254.5 -110.5h-292v750h292q149 -1 254.5 -110.5t105.5 -264.5z"/>
<glyph horiz-adv-x="658" unicode="E" glyph-name="E" d="M201 92h407v-92h-518v750h499v-92h-388v-222h317v-93h-317v-251z"/>
<glyph horiz-adv-x="638" unicode="F" glyph-name="F" d="M588 658h-387v-234h317v-92h-317v-332h-111v750h498v-92z"/>
<glyph horiz-adv-x="872" unicode="G" glyph-name="G" d="M497 420h305v-420h-111v96q-103 -106 -270 -106q-159 0 -270 111t-111 274q0 162 111.5 273t269.5 111q175 0 278 -115l-73 -73q-86 96 -205 96t-194 -84t-75 -208q0 -113 75.5 -203t193.5 -90q120 0 189 77q64 72 78 169h-191v92z"/>
<glyph horiz-adv-x="735" unicode="H" glyph-name="H" d="M534 750h111v-750h-111v329h-353v-329h-111v750h111v-329h353v329z"/>
<glyph horiz-adv-x="311" unicode="I" glyph-name="I" d="M201 750v-750h-111v750h111z"/>
<glyph horiz-adv-x="618" unicode="J" glyph-name="J" d="M436 750h112v-513q0 -48 -12.5 -90t-39.5 -78.5t-76 -57.5t-115 -21t-115.5 21t-76.5 57.5t-40 78.5t-13 90h111q0 -155 134 -155q37 0 63.5 12.5t39 28.5t19.5 41t8 39t1 34v513z"/>
<glyph horiz-adv-x="824" unicode="K" glyph-name="K" d="M774 750l-369 -310l369 -440h-155l-299 369l-109 -91v-278h-111v750h111v-342l400 342h163z"/>
<glyph horiz-adv-x="599" unicode="L" glyph-name="L" d="M181 92h378v-92h-489v750h111v-658z"/>
<glyph horiz-adv-x="1033" unicode="M" glyph-name="M" d="M927 750h16v-750h-111v563l-289 -563h-63l-289 563v-563h-111v750h15h119l297 -580l297 580h119z"/>
<glyph horiz-adv-x="838" unicode="N" glyph-name="N" d="M748 750v-750h-134l-402 597v-597h-112v750h134l403 -597v597h111z"/>
<glyph horiz-adv-x="832" unicode="O" glyph-name="O" d="M411 759q159 0 270 -111t111 -273q0 -163 -111 -274t-270 -111t-270 111t-111 274q0 162 111 273t270 111zM411 667q-116 0 -193 -87.5t-77 -204.5q0 -118 77 -205.5t193 -87.5t193 87.5t77 205.5q0 117 -77 204.5t-193 87.5z"/>
<glyph horiz-adv-x="706" unicode="P" glyph-name="P" d="M380 290q64 0 109.5 54t45.5 130t-45.5 130t-109.5 54h-178v-368h178zM646 474q0 -114 -77 -194.5t-187 -81.5h-180v-198h-112v750h292q110 -1 187 -81.5t77 -194.5z"/>
<glyph horiz-adv-x="894" unicode="Q" glyph-name="Q" d="M441 82q97 0 155 45l-113 122l68 63l107 -117q52 80 52 180q0 118 -76.5 205t-192.5 87t-193 -87t-77 -205q0 -114 75.5 -203.5t194.5 -89.5zM834 7l-68 -63l-103 111q-86 -65 -222 -65q-159 0 -270 111t-111 274t111 273.5t270 110.5t270 -111t111 -273q0 -146 -92 -257 z"/>
<glyph horiz-adv-x="696" unicode="R" glyph-name="R" d="M191 658v-348h179q65 0 110 49.5t45 124.5t-45 124.5t-110 49.5h-179zM636 484q0 -84 -44 -149.5t-117 -96.5l161 -238h-123l-147 218h-175v-218h-111v218v92v348v92h111h180q111 -1 188 -77.5t77 -188.5z"/>
<glyph horiz-adv-x="677" unicode="S" glyph-name="S" d="M595 275q12 -24 12 -69q0 -41 -16 -77q-27 -64 -97.5 -101t-165.5 -38q-80 0 -152 33t-126 91l74 74q26 -46 84.5 -76t119.5 -30q125 1 159 83q8 19 8 41q0 31 -6 37q-7 19 -18 32.5t-35.5 25.5t-36.5 16t-52 16q-4 2 -6.5 2.5t-6 1.5t-6.5 2q-2 1 -34 10.5t-38 11.5 t-33 11.5t-35.5 15t-28.5 17.5t-29 23t-20 26.5t-17 33.5q-11 29 -11 65q0 49 23 93q20 38 55 63.5t73.5 35t59 12t35.5 2.5q164 0 278 -125l-73 -73q-32 46 -88 76t-117 30q-4 0 -10.5 -0.5t-23.5 -4t-31.5 -9.5t-31 -19t-26.5 -31q-12 -23 -12 -51q0 -16 5 -33 q13 -34 43.5 -51t96.5 -36q11 -3 17 -5q7 -2 35.5 -10.5t37.5 -11.5t34 -12t35.5 -15t29 -17.5t29 -23t21.5 -28t18 -34.5z"/>
<glyph horiz-adv-x="575" unicode="T" glyph-name="T" d="M575 750v-92h-232v-658h-111v658h-232v92h575z"/>
<glyph horiz-adv-x="732" unicode="U" glyph-name="U" d="M561 750h111v-456q0 -41 -6.5 -78.5t-26.5 -80t-52 -73.5t-87.5 -51.5t-127.5 -20.5t-127.5 20.5t-88 51.5t-52.5 73t-27 80.5t-7 78.5v456h111v-456q0 -20 2 -40t13 -53.5t30 -57.5t57 -42.5t89 -18.5q37 0 67.5 9.5t49.5 24.5t33.5 36t21.5 39.5t11 41t5 35.5t1 26v456 z"/>
<glyph horiz-adv-x="661" unicode="V" glyph-name="V" d="M362 0h-63l-289 750h119l202 -552l201 552h119z"/>
<glyph horiz-adv-x="1030" unicode="W" glyph-name="W" d="M324 0h-57l-267 750h118l179 -529l189 529h57l189 -529l179 529h119l-267 -750h-57l-191 527z"/>
<glyph horiz-adv-x="709" unicode="X" glyph-name="X" d="M679 750l-261 -376l260 -374h-129l-194 280l-195 -280h-130l261 374l-261 376h130l194 -281l196 281h129z"/>
<glyph horiz-adv-x="689" unicode="Y" glyph-name="Y" d="M584 750h135l-309 -452v-298h-111v298l-309 452h135l229 -350z"/>
<glyph horiz-adv-x="745" unicode="Z" glyph-name="Z" d="M645 750v-114l-429 -544h429v-92h-545v114l428 544h-428v92h493h52z"/>
<glyph horiz-adv-x="303" unicode="[" glyph-name="bracketleft" d="M191 -80h112v-92h-223v1094h223v-92h-112v-910z"/>
<glyph horiz-adv-x="360" unicode="\" glyph-name="backslash" d="M370 0h-105l-275 750h104z"/>
<glyph horiz-adv-x="303" unicode="]" glyph-name="bracketright" d="M0 -80h112v910h-112v92h223v-1094h-223v92z"/>
<glyph unicode="^" glyph-name="asciicircum" d="M307 750l107 -166h-86l-78 96l-78 -96h-86l107 166h114z"/>
<glyph unicode="_" glyph-name="underscore" d="M503 -50v-84h-506v84h506z"/>
<glyph unicode="`" glyph-name="grave" d="M338 584h-86l-98 116l97 50z"/>
<glyph horiz-adv-x="534" unicode="a" glyph-name="a" d="M367 154v74h-126q-44 0 -71 -19.5t-27 -55.5q0 -8 1 -12q8 -66 97 -66q65 0 95.5 24t30.5 55zM271 504q98 0 148.5 -48t50.5 -111v-345h-103v54q-24 -33 -63.5 -48t-76.5 -15q-84 0 -135.5 43.5t-51.5 110.5q0 86 53.5 126.5t133.5 40.5h140v33q0 74 -96 74 q-72 0 -118 -64l-71 64q77 85 189 85z"/>
<glyph horiz-adv-x="595" unicode="b" glyph-name="b" d="M298 74q65 0 109.5 49t44.5 123q0 75 -44.5 123.5t-109.5 48.5q-92 0 -132 -78q-22 -44 -22 -94q0 -51 22 -93q40 -79 132 -79zM308 503q106 0 176.5 -73.5t70.5 -183.5t-70.5 -183t-176.5 -73q-79 0 -142 47v-37h-103v750h103v-295q25 20 65.5 34t76.5 14z"/>
<glyph horiz-adv-x="516" unicode="c" glyph-name="c" d="M405 129l71 -64q-68 -75 -189 -75q-107 0 -182 73.5t-75 182.5t75 183t182 74q121 0 189 -75l-71 -64q-40 54 -118 54q-65 0 -109.5 -48.5t-44.5 -123.5q0 -74 44.5 -123t109.5 -49q78 0 118 55z"/>
<glyph horiz-adv-x="613" unicode="d" glyph-name="d" d="M144 246q0 -74 44.5 -123t108.5 -49q93 0 132 79q22 42 22 93q0 50 -22 94q-38 78 -132 78q-64 0 -108.5 -48.5t-44.5 -123.5zM40 246q0 110 70.5 183.5t176.5 73.5q36 0 76.5 -14t65.5 -34v295h104v-750h-104v37q-63 -47 -142 -47q-106 0 -176.5 73t-70.5 183z"/>
<glyph horiz-adv-x="566" unicode="e" glyph-name="e" d="M139 294h279q0 58 -40 91t-100 33q-58 0 -98.5 -35t-40.5 -89zM526 246v-37h-389q0 -63 48 -99t103 -36q36 0 71 17.5t56 47.5l71 -64q-62 -85 -198 -85q-118 0 -188 72t-70 184t67.5 184.5t180.5 72.5q209 0 244 -209q4 -21 4 -48z"/>
<glyph horiz-adv-x="372" unicode="f" glyph-name="f" d="M342 665q-22 10 -39 10q-16 0 -33 -7q-36 -16 -46.5 -39t-10.5 -85v-50h129v-84h-129v-410h-103v410h-60v84h60v50q0 63 4.5 86.5t25.5 58.5q43 71 143 71q35 0 59 -15v-80z"/>
<glyph horiz-adv-x="608" unicode="g" glyph-name="g" d="M293 75q92 0 132 79q22 42 22 93q0 50 -22 94q-40 78 -132 78q-65 0 -109.5 -48.5t-44.5 -123.5q0 -74 44.5 -123t109.5 -49zM425 494h103v-502q0 -110 -75 -188t-182 -78q-111 0 -188 85l71 64q46 -65 117 -65q64 0 109 53.5t45 128.5v46q-25 -20 -65.5 -33.5 t-76.5 -13.5q-106 0 -176.5 73t-70.5 183t70.5 183.5t176.5 73.5q80 0 142 -48v38z"/>
<glyph horiz-adv-x="597" unicode="h" glyph-name="h" d="M527 285v-285h-103v275q0 76 -26.5 110t-89.5 34q-69 0 -102 -42t-33 -112v-265h-103v750h103v-336q10 33 50.5 59t84.5 29q9 1 26 1q92 0 142.5 -54t50.5 -164z"/>
<glyph horiz-adv-x="263" unicode="i" glyph-name="i" d="M183 675q0 -24 -16.5 -40.5t-40.5 -16.5q-23 0 -39.5 16.5t-16.5 40.5q0 23 16.5 39.5t39.5 16.5q24 0 40.5 -16.5t16.5 -39.5zM178 494v-494h-103v494h103z"/>
<glyph horiz-adv-x="298" unicode="j" glyph-name="j" d="M-20 -108q23 -10 39 -10t33 7q36 16 46.5 43t10.5 91v471h103v-471v-14q0 -56 -5 -82t-25 -59q-42 -71 -143 -71q-35 0 -59 15v80zM218 675q0 -24 -16.5 -40.5t-39.5 -16.5q-24 0 -40.5 16.5t-16.5 40.5q0 23 16.5 39.5t40.5 16.5q23 0 39.5 -16.5t16.5 -39.5z"/>
<glyph horiz-adv-x="558" unicode="k" glyph-name="k" d="M415 0l-187 239l-54 -46v-193h-104v750h104v-429l199 173h160l-230 -192l245 -302h-133z"/>
<glyph horiz-adv-x="264" unicode="l" glyph-name="l" d="M174 769v-769h-104v769h104z"/>
<glyph horiz-adv-x="901" unicode="m" glyph-name="m" d="M504 285v-285h-104l1 4v271q0 77 -24.5 110.5t-86.5 33.5q-130 0 -130 -154v-265h-103v494h103v-80q11 33 48.5 59t81.5 29q9 1 25 1q131 0 172 -106q15 48 56.5 75t89.5 30q9 1 26 1q188 0 188 -218v-285h-103v275q0 77 -24.5 110.5t-86.5 33.5q-117 0 -129 -134z"/>
<glyph horiz-adv-x="594" unicode="n" glyph-name="n" d="M517 285v-285h-103v275q0 76 -26.5 110t-89.5 34q-69 0 -102 -42t-33 -112v-265h-103v494h103v-80q10 33 50.5 59t84.5 29q9 1 26 1q92 0 142.5 -54t50.5 -164z"/>
<glyph horiz-adv-x="604" unicode="o" glyph-name="o" d="M297 503q107 0 182 -74t75 -183t-75 -182.5t-182 -73.5t-182 73.5t-75 182.5t75 183t182 74zM297 418q-65 0 -109.5 -48.5t-44.5 -123.5q0 -74 44.5 -123t109.5 -49t109.5 49t44.5 123q0 75 -44.5 123.5t-109.5 48.5z"/>
<glyph horiz-adv-x="593" unicode="p" glyph-name="p" d="M439 246q0 75 -44.5 123.5t-109.5 48.5q-93 0 -132 -79q-21 -44 -21 -93t21 -93q40 -79 132 -79q65 0 109.5 49t44.5 123zM543 246q0 -110 -70.5 -183t-177.5 -73q-36 0 -76.5 13.5t-65.5 33.5v-292h-103v749h103v-39q62 48 142 48q106 0 177 -73.5t71 -183.5z"/>
<glyph horiz-adv-x="613" unicode="q" glyph-name="q" d="M297 418q-65 0 -109.5 -48.5t-44.5 -123.5q0 -74 44.5 -123t109.5 -49q92 0 132 79q22 42 22 93t-22 93q-39 79 -132 79zM287 -10q-106 0 -176.5 73t-70.5 183t70.5 183.5t176.5 73.5q80 0 142 -48v39h104v-749h-104v292q-25 -20 -65 -33.5t-77 -13.5z"/>
<glyph horiz-adv-x="357" unicode="r" glyph-name="r" d="M357 488l-22 -81q-19 11 -47 11q-61 0 -93 -51t-32 -130v-237h-103v494h103v-70q9 34 44.5 56.5t79.5 22.5t70 -15z"/>
<glyph horiz-adv-x="470" unicode="s" glyph-name="s" d="M407 192q8 -32 8 -52q0 -29 -10 -53q-20 -44 -68.5 -70.5t-112.5 -26.5h-1q-102 0 -179 75l67 67q42 -54 112 -54q37 0 65 12t36 32q3 7 3 19q0 4 -0.5 9t-0.5 8l-1 3q-2 6 -6 10.5t-8 8t-12 7t-12.5 5.5t-15.5 4.5t-16 3.5t-18 4t-18 4q-43 10 -67.5 18t-52.5 29.5 t-40 54.5q-8 22 -8 45q0 36 17 68q14 27 38.5 45t51 24.5t41 8.5t24.5 2q109 0 180 -73l-67 -67q-40 52 -113 52q-6 0 -17 -1t-31.5 -9.5t-28.5 -23.5q-7 -11 -7 -26q0 -7 3 -15q4 -10 12 -17.5t26.5 -13.5t28 -8.5t36.5 -8.5q28 -6 40.5 -9.5t36.5 -12t36.5 -17.5t27 -25 t21.5 -36z"/>
<glyph horiz-adv-x="382" unicode="t" glyph-name="t" d="M250 82q17 -7 33 -7q17 0 39 10v-80q-24 -15 -59 -15q-99 0 -143 71q-21 35 -25.5 62.5t-4.5 92.5v194h-60v84h60v156h103v-156h129v-84h-129v-194q0 -64 10.5 -91t46.5 -43z"/>
<glyph horiz-adv-x="590" unicode="u" glyph-name="u" d="M53 209v285h103v-275q0 -76 26.5 -110t89.5 -34q69 0 102 42t33 112v265h103v-494h-103v80q-10 -33 -50.5 -59t-84.5 -29q-9 -1 -26 -1q-92 0 -142.5 54t-50.5 164z"/>
<glyph horiz-adv-x="483" unicode="v" glyph-name="v" d="M272 0h-63l-209 494h104l136 -345l136 345h103z"/>
<glyph horiz-adv-x="768" unicode="w" glyph-name="w" d="M655 494h103l-188 -494h-63l-123 320l-122 -320h-63l-189 494h104l117 -345l103 304l13 41h74l14 -41l103 -304z"/>
<glyph horiz-adv-x="485" unicode="x" glyph-name="x" d="M467 494l-175 -247l175 -247h-118l-110 165l-111 -165h-118l176 247l-176 247h118l111 -165l110 165h118z"/>
<glyph horiz-adv-x="509" unicode="y" glyph-name="y" d="M489 494q-125 -296 -208 -494q-59 -140 -106 -203t-112 -63q-42 0 -93 30l31 90q17 -15 38 -20q10 -2 14 -2q16 0 32.5 12t28.5 28t25.5 43t21.5 46.5t19.5 49.5t16.5 41l-187 442h104l136 -324l135 324h104z"/>
<glyph horiz-adv-x="475" unicode="z" glyph-name="z" d="M405 494v-88l-249 -322h249v-84h-355v94l248 316h-248v84h355z"/>
<glyph horiz-adv-x="471" unicode="{" glyph-name="braceleft" d="M350 -12q34 -33 114 -33h7v-104h-10q-118 0 -184 63q-45 45 -57 117q-7 38 -7 116v33q0 89 -31 117q-28 27 -91 27h-7h-4l2 52l-2 51l2 1h2h12q58 0 86 26q31 29 31 118v32q0 78 7 116q12 72 57 117q63 63 183 63h11v-104h-7q-80 0 -114 -33q-20 -21 -28 -61 q-5 -29 -5 -97v-29q0 -65 -12.5 -113t-51.5 -85l-2 -2l2 -2q39 -36 51.5 -85t12.5 -114v-29q0 -68 5 -97q7 -39 28 -61z"/>
<glyph horiz-adv-x="471" unicode="}" glyph-name="braceright" d="M0 -46h7q79 0 114 33q21 22 28 61q5 29 5 97v29q0 65 12.5 114t51.5 85l2 2l-2 2q-39 37 -51.5 85t-12.5 113v29q0 68 -5 97q-8 41 -28 61q-34 33 -114 33h-7v104h11q120 0 183 -63q45 -45 57 -117q7 -38 7 -116v-32q0 -89 31 -118q28 -26 86 -26h12q1 0 3 -1h1l-2 -51 l2 -52h-4h-7q-62 0 -91 -27q-31 -28 -31 -117v-33q0 -78 -7 -116q-12 -72 -57 -117q-66 -63 -184 -63h-10v104z"/>
<glyph horiz-adv-x="559" unicode="£" glyph-name="sterling" d="M273 209q-16 -48 -65 -117h301v-92h-458q0 23 10.5 49.5t21 43.5t32.5 48q58 83 67 126h-132v64h130q-5 15 -7 19q-37 87 -37 161q0 92 59 164q63 79 171 85h9q71 0 134 -42l-58 -87q-35 25 -76 25h-5q-7 0 -19.5 -2t-36 -13.5t-38.5 -30.5q-30 -38 -34 -67 q-2 -18 -2 -28q0 -55 29 -125q13 -30 17 -59h174v-64h-173q-3 -26 -14 -58z"/>
<glyph horiz-adv-x="649" unicode="¥" glyph-name="yen" d="M570 140h-180v-140h-111v140h-184v64h184v68h-184v64h158l-283 414h135l229 -350l230 350h135l-283 -414h154v-64h-180v-68h180v-64z"/>
<glyph unicode="¨" glyph-name="dieresis" d="M389 675q0 -24 -16.5 -40.5t-40.5 -16.5q-23 0 -39.5 16.5t-16.5 40.5q0 23 16.5 39.5t39.5 16.5q24 0 40.5 -16.5t16.5 -39.5zM224 675q0 -24 -16.5 -40.5t-40.5 -16.5q-23 0 -39.5 16.5t-16.5 40.5q0 23 16.5 39.5t39.5 16.5q24 0 40.5 -16.5t16.5 -39.5z"/>
<glyph horiz-adv-x="660" unicode="«" glyph-name="guillemotleft" d="M285 248v63l259 195v-94l-167 -133l167 -133v-94zM60 248v63l259 195v-94l-167 -133l167 -133v-94z"/>
<glyph horiz-adv-x="316" unicode="°" glyph-name="degree" d="M157 750q53 0 90.5 -39t37.5 -94q0 -54 -37.5 -92.5t-90.5 -38.5q-52 0 -89.5 38.5t-37.5 92.5q0 55 37 94t90 39zM157 709q-31 0 -54 -27.5t-23 -64.5q0 -36 23 -63t54 -27t54.5 27t23.5 63q0 37 -23 64.5t-55 27.5z"/>
<glyph unicode="±" glyph-name="plusminus" d="M446 0h-356v84h356v-84zM446 274h-136v-136h-84v136h-136v84h136v136h84v-136h136v-84z"/>
<glyph unicode="´" glyph-name="acute" d="M223 584h-86l87 166l97 -50z"/>
<glyph horiz-adv-x="261" unicode="·" glyph-name="periodcentered" d="M201 61q0 -30 -20.5 -50.5t-50.5 -20.5q-29 0 -49.5 20.5t-20.5 50.5q0 29 20.5 49t49.5 20q30 0 50.5 -20t20.5 -49z"/>
<glyph horiz-adv-x="217" unicode="¸" glyph-name="cedilla" d="M105 -49q35 -2 58.5 -28t23.5 -63q0 -38 -25.5 -64.5t-62.5 -26.5q-38 0 -64 29l44 57q8 -11 21 -11q11 0 18.5 9t7.5 22t-7.5 22t-18.5 9q-13 0 -21 -11l-52 31l84 95l33 -31z"/>
<glyph horiz-adv-x="621" unicode="»" glyph-name="guillemotright" d="M355 311v-63l-259 -196v94l167 133l-167 133v94zM580 311v-63l-259 -196v94l167 133l-167 133v94z"/>
<glyph horiz-adv-x="704" unicode="À" glyph-name="Agrave" d="M386 830h-86l-98 116l97 50zM239 288h225l-112 296zM386 750l308 -750h-120l-75 196h-295l-74 -196h-120l308 750h68z"/>
<glyph horiz-adv-x="704" unicode="Á" glyph-name="Aacute" d="M405 830h-86l87 166l97 -50zM239 288h225l-112 296zM386 750l308 -750h-120l-75 196h-295l-74 -196h-120l308 750h68z"/>
<glyph horiz-adv-x="704" unicode="Â" glyph-name="Acircumflex" d="M410 996l107 -166h-86l-78 96l-78 -96h-86l107 166h114zM239 288h225l-112 296zM386 750l308 -750h-120l-75 196h-295l-74 -196h-120l308 750h68z"/>
<glyph horiz-adv-x="704" unicode="Ä" glyph-name="Adieresis" d="M492 887q0 -24 -16.5 -40.5t-40.5 -16.5q-23 0 -39.5 16.5t-16.5 40.5q0 23 16.5 39.5t39.5 16.5q24 0 40.5 -16.5t16.5 -39.5zM327 887q0 -24 -16.5 -40.5t-40.5 -16.5q-23 0 -39.5 16.5t-16.5 40.5q0 23 16.5 39.5t39.5 16.5q24 0 40.5 -16.5t16.5 -39.5zM239 288h225 l-112 296zM386 750l308 -750h-120l-75 196h-295l-74 -196h-120l308 750h68z"/>
<glyph horiz-adv-x="769" unicode="Ç" glyph-name="Ccedilla" d="M402 -221q-38 0 -64 29l44 57q8 -11 21 -11q11 0 18.5 9t7.5 22t-7.5 22t-18.5 9q-13 0 -21 -11l-52 31q5 5 51 57q-142 20 -236.5 127t-94.5 255q0 162 111 273t270 111q173 0 278 -115l-73 -73q-30 45 -85.5 70.5t-119.5 25.5q-114 0 -192 -87t-78 -205 q0 -72 32 -138.5t95.5 -110.5t142.5 -44q119 0 204 95l73 -73q-100 -111 -271 -114l-29 -29q35 -2 58.5 -28t23.5 -63q0 -38 -25.5 -64.5t-62.5 -26.5z"/>
<glyph horiz-adv-x="668" unicode="È" glyph-name="Egrave" d="M384 830h-86l-98 116l97 50zM181 92h407v-92h-518v750h499v-92h-388v-222h317v-93h-317v-251z"/>
<glyph horiz-adv-x="668" unicode="É" glyph-name="Eacute" d="M375 830h-86l87 166l97 -50zM181 92h407v-92h-518v750h499v-92h-388v-222h317v-93h-317v-251z"/>
<glyph horiz-adv-x="668" unicode="Ê" glyph-name="Ecircumflex" d="M387 996l107 -166h-86l-78 96l-78 -96h-86l107 166h114zM181 92h407v-92h-518v750h499v-92h-388v-222h317v-93h-317v-251z"/>
<glyph horiz-adv-x="668" unicode="Ë" glyph-name="Edieresis" d="M467 887q0 -24 -16.5 -40.5t-40.5 -16.5q-23 0 -39.5 16.5t-16.5 40.5q0 23 16.5 39.5t39.5 16.5q24 0 40.5 -16.5t16.5 -39.5zM302 887q0 -24 -16.5 -40.5t-40.5 -16.5q-23 0 -39.5 16.5t-16.5 40.5q0 23 16.5 39.5t39.5 16.5q24 0 40.5 -16.5t16.5 -39.5zM181 92h407 v-92h-518v750h499v-92h-388v-222h317v-93h-317v-251z"/>
<glyph horiz-adv-x="384" unicode="Ì" glyph-name="Igrave" d="M284 830h-86l-98 116l97 50zM284 0h-111v750h111v-750z"/>
<glyph horiz-adv-x="384" unicode="Í" glyph-name="Iacute" d="M186 830h-86l87 166l97 -50zM211 0h-111v750h111v-750z"/>
<glyph horiz-adv-x="528" unicode="Î" glyph-name="Icircumflex" d="M321 996l107 -166h-86l-78 96l-78 -96h-86l107 166h114zM319 0h-111v750h111v-750z"/>
<glyph horiz-adv-x="478" unicode="Ï" glyph-name="Idieresis" d="M378 887q0 -24 -16.5 -40.5t-40.5 -16.5q-23 0 -39.5 16.5t-16.5 40.5q0 23 16.5 39.5t39.5 16.5q24 0 40.5 -16.5t16.5 -39.5zM213 887q0 -24 -16.5 -40.5t-40.5 -16.5q-23 0 -39.5 16.5t-16.5 40.5q0 23 16.5 39.5t39.5 16.5q24 0 40.5 -16.5t16.5 -39.5zM294 750v-750 h-111v750h111z"/>
<glyph horiz-adv-x="862" unicode="Ò" glyph-name="Ograve" d="M431 759q159 0 270 -111t111 -273q0 -163 -111 -274t-270 -111t-270 111t-111 274q0 162 111 273t270 111zM431 667q-116 0 -193 -87.5t-77 -204.5q0 -118 77 -205.5t193 -87.5t193 87.5t77 205.5q0 117 -77 204.5t-193 87.5zM451 830h-86l-98 116l97 50z"/>
<glyph horiz-adv-x="862" unicode="Ó" glyph-name="Oacute" d="M431 759q159 0 270 -111t111 -273q0 -163 -111 -274t-270 -111t-270 111t-111 274q0 162 111 273t270 111zM431 667q-116 0 -193 -87.5t-77 -204.5q0 -118 77 -205.5t193 -87.5t193 87.5t77 205.5q0 117 -77 204.5t-193 87.5zM505 830h-86l87 166l97 -50z"/>
<glyph horiz-adv-x="862" unicode="Ô" glyph-name="Ocircumflex" d="M431 759q159 0 270 -111t111 -273q0 -163 -111 -274t-270 -111t-270 111t-111 274q0 162 111 273t270 111zM431 667q-116 0 -193 -87.5t-77 -204.5q0 -118 77 -205.5t193 -87.5t193 87.5t77 205.5q0 117 -77 204.5t-193 87.5zM488 996l107 -166h-86l-78 96l-78 -96h-86 l107 166h114z"/>
<glyph horiz-adv-x="862" unicode="Ö" glyph-name="Odieresis" d="M431 759q159 0 270 -111t111 -273q0 -163 -111 -274t-270 -111t-270 111t-111 274q0 162 111 273t270 111zM431 667q-116 0 -193 -87.5t-77 -204.5q0 -118 77 -205.5t193 -87.5t193 87.5t77 205.5q0 117 -77 204.5t-193 87.5zM568 897q0 -24 -16.5 -40.5t-40.5 -16.5 q-23 0 -39.5 16.5t-16.5 40.5q0 23 16.5 39.5t39.5 16.5q24 0 40.5 -16.5t16.5 -39.5zM403 897q0 -24 -16.5 -40.5t-40.5 -16.5q-23 0 -39.5 16.5t-16.5 40.5q0 23 16.5 39.5t39.5 16.5q24 0 40.5 -16.5t16.5 -39.5z"/>
<glyph horiz-adv-x="484" unicode="×" glyph-name="multiply" d="M393 343l-97 -96l97 -96l-60 -59l-96 96l-96 -96l-60 59l97 96l-97 96l60 60l96 -96l96 96z"/>
<glyph horiz-adv-x="782" unicode="Ù" glyph-name="Ugrave" d="M581 750h111v-456q0 -41 -6.5 -78.5t-26.5 -80t-52 -73.5t-87.5 -51.5t-127.5 -20.5t-127.5 20.5t-88 51.5t-52.5 73t-27 80.5t-7 78.5v456h111v-456q0 -20 2 -40t13 -53.5t30 -57.5t57 -42.5t89 -18.5q37 0 67.5 9.5t49.5 24.5t33.5 36t21.5 39.5t11 41t5 35.5t1 26v456 zM458 830h-86l-98 116l97 50z"/>
<glyph horiz-adv-x="782" unicode="Ú" glyph-name="Uacute" d="M581 750h111v-456q0 -41 -6.5 -78.5t-26.5 -80t-52 -73.5t-87.5 -51.5t-127.5 -20.5t-127.5 20.5t-88 51.5t-52.5 73t-27 80.5t-7 78.5v456h111v-456q0 -20 2 -40t13 -53.5t30 -57.5t57 -42.5t89 -18.5q37 0 67.5 9.5t49.5 24.5t33.5 36t21.5 39.5t11 41t5 35.5t1 26v456 zM411 830h-86l87 166l97 -50z"/>
<glyph horiz-adv-x="782" unicode="Û" glyph-name="Ucircumflex" d="M581 750h111v-456q0 -41 -6.5 -78.5t-26.5 -80t-52 -73.5t-87.5 -51.5t-127.5 -20.5t-127.5 20.5t-88 51.5t-52.5 73t-27 80.5t-7 78.5v456h111v-456q0 -20 2 -40t13 -53.5t30 -57.5t57 -42.5t89 -18.5q37 0 67.5 9.5t49.5 24.5t33.5 36t21.5 39.5t11 41t5 35.5t1 26v456 zM447 996l107 -166h-86l-78 96l-78 -96h-86l107 166h114z"/>
<glyph horiz-adv-x="782" unicode="Ü" glyph-name="Udieresis" d="M527 887q0 -24 -16.5 -40.5t-40.5 -16.5q-23 0 -39.5 16.5t-16.5 40.5q0 23 16.5 39.5t39.5 16.5q24 0 40.5 -16.5t16.5 -39.5zM362 887q0 -24 -16.5 -40.5t-40.5 -16.5q-23 0 -39.5 16.5t-16.5 40.5q0 23 16.5 39.5t39.5 16.5q24 0 40.5 -16.5t16.5 -39.5zM581 750h111 v-456q0 -41 -6.5 -78.5t-26.5 -80t-52 -73.5t-87.5 -51.5t-127.5 -20.5t-127.5 20.5t-88 51.5t-52.5 73t-27 80.5t-7 78.5v456h111v-456q0 -20 2 -40t13 -53.5t30 -57.5t57 -42.5t89 -18.5q37 0 67.5 9.5t49.5 24.5t33.5 36t21.5 39.5t11 41t5 35.5t1 26v456z"/>
<glyph horiz-adv-x="689" unicode="Ý" glyph-name="Yacute" d="M391 830h-86l87 166l97 -50zM584 750h135l-309 -452v-298h-111v298l-309 452h135l229 -350z"/>
<glyph horiz-adv-x="674" unicode="ß" glyph-name="germandbls" d="M275 40v92q67 -50 122 -50q43 0 67.5 33t24.5 75q0 24 -2 42.5t-12.5 44.5t-29.5 43t-55 29t-86 12v82q51 0 85.5 32.5t38.5 75.5q0 3 0.5 8t0.5 7q0 44 -22 70.5t-58 26.5q-76 0 -107 -60t-31 -188v-415h-111v415q0 335 229 335q58 0 101 -17.5t65.5 -45.5t33 -57.5 t10.5 -59.5q0 -81 -37.5 -125.5t-85.5 -44.5q64 0 124 -57.5t60 -142.5t-51.5 -145t-151.5 -60q-80 0 -122 45z"/>
<glyph horiz-adv-x="540" unicode="à" glyph-name="agrave" d="M367 154v74h-126q-44 0 -71 -19.5t-27 -55.5q0 -8 1 -12q8 -66 97 -66q65 0 95.5 24t30.5 55zM271 504q98 0 148.5 -48t50.5 -111v-345h-103v54q-24 -33 -63.5 -48t-76.5 -15q-84 0 -135.5 43.5t-51.5 110.5q0 86 53.5 126.5t133.5 40.5h140v33q0 74 -96 74 q-72 0 -118 -64l-71 64q77 85 189 85zM320 584h-86l-98 116l97 50z"/>
<glyph horiz-adv-x="540" unicode="á" glyph-name="aacute" d="M367 154v74h-126q-44 0 -71 -19.5t-27 -55.5q0 -8 1 -12q8 -66 97 -66q65 0 95.5 24t30.5 55zM271 504q98 0 148.5 -48t50.5 -111v-345h-103v54q-24 -33 -63.5 -48t-76.5 -15q-84 0 -135.5 43.5t-51.5 110.5q0 86 53.5 126.5t133.5 40.5h140v33q0 74 -96 74 q-72 0 -118 -64l-71 64q77 85 189 85zM330 584h-86l87 166l97 -50z"/>
<glyph horiz-adv-x="540" unicode="â" glyph-name="acircumflex" d="M367 154v74h-126q-44 0 -71 -19.5t-27 -55.5q0 -8 1 -12q8 -66 97 -66q65 0 95.5 24t30.5 55zM271 504q98 0 148.5 -48t50.5 -111v-345h-103v54q-24 -33 -63.5 -48t-76.5 -15q-84 0 -135.5 43.5t-51.5 110.5q0 86 53.5 126.5t133.5 40.5h140v33q0 74 -96 74 q-72 0 -118 -64l-71 64q77 85 189 85zM328 750l107 -166h-86l-78 96l-78 -96h-86l107 166h114z"/>
<glyph horiz-adv-x="540" unicode="ä" glyph-name="adieresis" d="M367 154v74h-126q-44 0 -71 -19.5t-27 -55.5q0 -8 1 -12q8 -66 97 -66q65 0 95.5 24t30.5 55zM271 504q98 0 148.5 -48t50.5 -111v-345h-103v54q-24 -33 -63.5 -48t-76.5 -15q-84 0 -135.5 43.5t-51.5 110.5q0 86 53.5 126.5t133.5 40.5h140v33q0 74 -96 74 q-72 0 -118 -64l-71 64q77 85 189 85zM407 675q0 -24 -16.5 -40.5t-40.5 -16.5q-23 0 -39.5 16.5t-16.5 40.5q0 23 16.5 39.5t39.5 16.5q24 0 40.5 -16.5t16.5 -39.5zM242 675q0 -24 -16.5 -40.5t-40.5 -16.5q-23 0 -39.5 16.5t-16.5 40.5q0 23 16.5 39.5t39.5 16.5 q24 0 40.5 -16.5t16.5 -39.5z"/>
<glyph horiz-adv-x="526" unicode="ç" glyph-name="ccedilla" d="M271 -221q-38 0 -64 29l44 57q8 -11 21 -11q11 0 18.5 9t7.5 22t-7.5 22t-18.5 9q-13 0 -21 -11l-52 31l8 9q8 9 20.5 23.5t23.5 25.5q-92 18 -151.5 87t-59.5 165q0 109 75 183t182 74q121 0 189 -75l-71 -64q-40 54 -118 54q-65 0 -109.5 -48.5t-44.5 -123.5 q0 -74 44.5 -123t109.5 -49q78 0 118 55l71 -64q-63 -70 -180 -75l-29 -29q35 -2 58.5 -28t23.5 -63q0 -38 -25.5 -64.5t-62.5 -26.5z"/>
<glyph horiz-adv-x="566" unicode="è" glyph-name="egrave" d="M139 294h279q0 58 -40 91t-100 33q-58 0 -98.5 -35t-40.5 -89zM526 246v-37h-389q0 -63 48 -99t103 -36q36 0 71 17.5t56 47.5l71 -64q-62 -85 -198 -85q-118 0 -188 72t-70 184t67.5 184.5t180.5 72.5q209 0 244 -209q4 -21 4 -48zM310 584h-86l-98 116l97 50z"/>
<glyph horiz-adv-x="566" unicode="é" glyph-name="eacute" d="M139 294h279q0 58 -40 91t-100 33q-58 0 -98.5 -35t-40.5 -89zM526 246v-37h-389q0 -63 48 -99t103 -36q36 0 71 17.5t56 47.5l71 -64q-62 -85 -198 -85q-118 0 -188 72t-70 184t67.5 184.5t180.5 72.5q209 0 244 -209q4 -21 4 -48zM330 584h-86l87 166l97 -50z"/>
<glyph horiz-adv-x="566" unicode="ê" glyph-name="ecircumflex" d="M139 294h279q0 58 -40 91t-100 33q-58 0 -98.5 -35t-40.5 -89zM526 246v-37h-389q0 -63 48 -99t103 -36q36 0 71 17.5t56 47.5l71 -64q-62 -85 -198 -85q-118 0 -188 72t-70 184t67.5 184.5t180.5 72.5q209 0 244 -209q4 -21 4 -48zM336 750l107 -166h-86l-78 96l-78 -96 h-86l107 166h114z"/>
<glyph horiz-adv-x="566" unicode="ë" glyph-name="edieresis" d="M139 294h279q0 58 -40 91t-100 33q-58 0 -98.5 -35t-40.5 -89zM526 246v-37h-389q0 -63 48 -99t103 -36q36 0 71 17.5t56 47.5l71 -64q-62 -85 -198 -85q-118 0 -188 72t-70 184t67.5 184.5t180.5 72.5q209 0 244 -209q4 -21 4 -48zM408 675q0 -24 -16.5 -40.5 t-40.5 -16.5q-23 0 -39.5 16.5t-16.5 40.5q0 23 16.5 39.5t39.5 16.5q24 0 40.5 -16.5t16.5 -39.5zM243 675q0 -24 -16.5 -40.5t-40.5 -16.5q-23 0 -39.5 16.5t-16.5 40.5q0 23 16.5 39.5t39.5 16.5q24 0 40.5 -16.5t16.5 -39.5z"/>
<glyph horiz-adv-x="335" unicode="ì" glyph-name="igrave" d="M255 0h-103v494h103v-494zM254 584h-86l-98 116l97 50z"/>
<glyph horiz-adv-x="334" unicode="í" glyph-name="iacute" d="M156 584h-86l87 166l97 -50zM173 0h-103v494h103v-494z"/>
<glyph horiz-adv-x="478" unicode="î" glyph-name="icircumflex" d="M291 750l107 -166h-86l-78 96l-78 -96h-86l107 166h114zM285 0h-103v494h103v-494z"/>
<glyph horiz-adv-x="428" unicode="ï" glyph-name="idieresis" d="M348 675q0 -24 -16.5 -40.5t-40.5 -16.5q-23 0 -39.5 16.5t-16.5 40.5q0 23 16.5 39.5t39.5 16.5q24 0 40.5 -16.5t16.5 -39.5zM183 675q0 -24 -16.5 -40.5t-40.5 -16.5q-23 0 -39.5 16.5t-16.5 40.5q0 23 16.5 39.5t39.5 16.5q24 0 40.5 -16.5t16.5 -39.5zM250 494v-494 h-103v494h103z"/>
<glyph horiz-adv-x="604" unicode="ò" glyph-name="ograve" d="M297 503q107 0 182 -74t75 -183t-75 -182.5t-182 -73.5t-182 73.5t-75 182.5t75 183t182 74zM297 418q-65 0 -109.5 -48.5t-44.5 -123.5q0 -74 44.5 -123t109.5 -49t109.5 49t44.5 123q0 75 -44.5 123.5t-109.5 48.5zM356 584h-86l-98 116l97 50z"/>
<glyph horiz-adv-x="604" unicode="ó" glyph-name="oacute" d="M297 503q107 0 182 -74t75 -183t-75 -182.5t-182 -73.5t-182 73.5t-75 182.5t75 183t182 74zM297 418q-65 0 -109.5 -48.5t-44.5 -123.5q0 -74 44.5 -123t109.5 -49t109.5 49t44.5 123q0 75 -44.5 123.5t-109.5 48.5zM350 584h-86l87 166l97 -50z"/>
<glyph horiz-adv-x="604" unicode="ô" glyph-name="ocircumflex" d="M297 503q107 0 182 -74t75 -183t-75 -182.5t-182 -73.5t-182 73.5t-75 182.5t75 183t182 74zM297 418q-65 0 -109.5 -48.5t-44.5 -123.5q0 -74 44.5 -123t109.5 -49t109.5 49t44.5 123q0 75 -44.5 123.5t-109.5 48.5zM356 750l107 -166h-86l-78 96l-78 -96h-86l107 166 h114z"/>
<glyph horiz-adv-x="604" unicode="ö" glyph-name="odieresis" d="M297 503q107 0 182 -74t75 -183t-75 -182.5t-182 -73.5t-182 73.5t-75 182.5t75 183t182 74zM297 418q-65 0 -109.5 -48.5t-44.5 -123.5q0 -74 44.5 -123t109.5 -49t109.5 49t44.5 123q0 75 -44.5 123.5t-109.5 48.5zM435 675q0 -24 -16.5 -40.5t-40.5 -16.5 q-23 0 -39.5 16.5t-16.5 40.5q0 23 16.5 39.5t39.5 16.5q24 0 40.5 -16.5t16.5 -39.5zM270 675q0 -24 -16.5 -40.5t-40.5 -16.5q-23 0 -39.5 16.5t-16.5 40.5q0 23 16.5 39.5t39.5 16.5q24 0 40.5 -16.5t16.5 -39.5z"/>
<glyph horiz-adv-x="607" unicode="ù" glyph-name="ugrave" d="M70 209v285h103v-275q0 -76 26.5 -110t89.5 -34q69 0 102 42t33 112v265h103v-494h-103v80q-10 -33 -50.5 -59t-84.5 -29q-9 -1 -26 -1q-92 0 -142.5 54t-50.5 164zM354 584h-86l-98 116l97 50z"/>
<glyph horiz-adv-x="607" unicode="ú" glyph-name="uacute" d="M70 209v285h103v-275q0 -76 26.5 -110t89.5 -34q69 0 102 42t33 112v265h103v-494h-103v80q-10 -33 -50.5 -59t-84.5 -29q-9 -1 -26 -1q-92 0 -142.5 54t-50.5 164zM340 584h-86l87 166l97 -50z"/>
<glyph horiz-adv-x="607" unicode="û" glyph-name="ucircumflex" d="M70 209v285h103v-275q0 -76 26.5 -110t89.5 -34q69 0 102 42t33 112v265h103v-494h-103v80q-10 -33 -50.5 -59t-84.5 -29q-9 -1 -26 -1q-92 0 -142.5 54t-50.5 164zM355 750l107 -166h-86l-78 96l-78 -96h-86l107 166h114z"/>
<glyph horiz-adv-x="607" unicode="ü" glyph-name="udieresis" d="M70 209v285h103v-275q0 -76 26.5 -110t89.5 -34q69 0 102 42t33 112v265h103v-494h-103v80q-10 -33 -50.5 -59t-84.5 -29q-9 -1 -26 -1q-92 0 -142.5 54t-50.5 164zM436 671q0 -24 -16.5 -40.5t-40.5 -16.5q-23 0 -39.5 16.5t-16.5 40.5q0 23 16.5 39.5t39.5 16.5 q24 0 40.5 -16.5t16.5 -39.5zM271 671q0 -24 -16.5 -40.5t-40.5 -16.5q-23 0 -39.5 16.5t-16.5 40.5q0 23 16.5 39.5t39.5 16.5q24 0 40.5 -16.5t16.5 -39.5z"/>
<glyph horiz-adv-x="509" unicode="ý" glyph-name="yacute" d="M489 494q-125 -296 -208 -494q-59 -140 -106 -203t-112 -63q-42 0 -93 30l31 90q17 -15 38 -20q10 -2 14 -2q16 0 32.5 12t28.5 28t25.5 43t21.5 46.5t19.5 49.5t16.5 41l-187 442h104l136 -324l135 324h104zM289 584h-86l87 166l97 -50z"/>
<glyph horiz-adv-x="509" unicode="ÿ" glyph-name="ydieresis" d="M489 494q-125 -296 -208 -494q-59 -140 -106 -203t-112 -63q-42 0 -93 30l31 90q17 -15 38 -20q10 -2 14 -2q16 0 32.5 12t28.5 28t25.5 43t21.5 46.5t19.5 49.5t16.5 41l-187 442h104l136 -324l135 324h104zM390 671q0 -24 -16.5 -40.5t-40.5 -16.5q-23 0 -39.5 16.5 t-16.5 40.5q0 23 16.5 39.5t39.5 16.5q24 0 40.5 -16.5t16.5 -39.5zM225 671q0 -24 -16.5 -40.5t-40.5 -16.5q-23 0 -39.5 16.5t-16.5 40.5q0 23 16.5 39.5t39.5 16.5q24 0 40.5 -16.5t16.5 -39.5z"/>
<glyph horiz-adv-x="689" unicode="Ÿ" glyph-name="Ydieresis" d="M493 888q0 -24 -16.5 -40.5t-40.5 -16.5q-23 0 -39.5 16.5t-16.5 40.5q0 23 16.5 39.5t39.5 16.5q24 0 40.5 -16.5t16.5 -39.5zM328 888q0 -24 -16.5 -40.5t-40.5 -16.5q-23 0 -39.5 16.5t-16.5 40.5q0 23 16.5 39.5t39.5 16.5q24 0 40.5 -16.5t16.5 -39.5zM584 750h135 l-309 -452v-298h-111v298l-309 452h135l229 -350z"/>
<glyph unicode="˝" glyph-name="hungarumlaut"/>
<glyph horiz-adv-x="536" unicode="–" glyph-name="endash" d="M426 301v-84h-356v84h356z"/>
<glyph horiz-adv-x="765" unicode="—" glyph-name="emdash" d="M629 301v-84h-559v84h559z"/>
<glyph horiz-adv-x="230" unicode="‘" glyph-name="quoteleft" d="M50 533q0 21 13 41l94 135h33l-36 -114q36 -19 36 -62q0 -29 -20 -49.5t-49 -20.5q-30 0 -50.5 20.5t-20.5 49.5z"/>
<glyph horiz-adv-x="250" unicode="’" glyph-name="quoteright" d="M200 641q0 -25 -12 -41l-94 -136h-34l37 114q-37 20 -37 63q0 29 20 49t49 20q30 0 50.5 -20t20.5 -49z"/>
<glyph horiz-adv-x="278" unicode="‚" glyph-name="quotesinglbase" d="M180 63q0 -25 -12 -41l-94 -136h-34l37 114q-37 20 -37 63q0 29 20 49t49 20q30 0 50.5 -20t20.5 -49z"/>
<glyph horiz-adv-x="427" unicode="“" glyph-name="quotedblleft" d="M235 533q0 21 13 41l94 135h33l-36 -114q36 -19 36 -62q0 -29 -20 -49.5t-49 -20.5q-30 0 -50.5 20.5t-20.5 49.5zM50 533q0 21 13 41l94 135h33l-36 -114q36 -19 36 -62q0 -29 -20 -49.5t-49 -20.5q-30 0 -50.5 20.5t-20.5 49.5z"/>
<glyph horiz-adv-x="423" unicode="”" glyph-name="quotedblright" d="M384 641q0 -25 -12 -41l-94 -136h-34l37 114q-37 20 -37 63q0 29 20 49t49 20q30 0 50.5 -20t20.5 -49zM200 641q0 -25 -12 -41l-94 -136h-34l37 114q-37 20 -37 63q0 29 20 49t49 20q30 0 50.5 -20t20.5 -49z"/>
<glyph horiz-adv-x="482" unicode="„" glyph-name="quotedblbase" d="M384 64q0 -24 -12 -41l-94 -136h-34l37 114q-37 20 -37 63q0 28 20 48.5t49 20.5q30 0 50.5 -20t20.5 -49zM200 64q0 -24 -12 -41l-94 -136h-34l37 114q-37 20 -37 63q0 28 20 48.5t49 20.5q30 0 50.5 -20t20.5 -49z"/>
<glyph horiz-adv-x="301" unicode="•" glyph-name="bullet" d="M211 372q0 -30 -20.5 -50.5t-50.5 -20.5q-29 0 -49.5 20.5t-20.5 50.5q0 29 20.5 49t49.5 20q30 0 50.5 -20t20.5 -49z"/>
<glyph horiz-adv-x="783" unicode="…" glyph-name="ellipsis" d="M643 61q0 -30 -20.5 -50.5t-50.5 -20.5q-29 0 -49.5 20.5t-20.5 50.5q0 29 20.5 49t49.5 20q30 0 50.5 -20t20.5 -49zM422 61q0 -30 -20.5 -50.5t-50.5 -20.5q-29 0 -49.5 20.5t-20.5 50.5q0 29 20.5 49t49.5 20q30 0 50.5 -20t20.5 -49zM201 61q0 -30 -20.5 -50.5 t-50.5 -20.5q-29 0 -49.5 20.5t-20.5 50.5q0 29 20.5 49t49.5 20q30 0 50.5 -20t20.5 -49z"/>
<glyph horiz-adv-x="808" unicode="€" glyph-name="Euro" d="M533 221h-276q33 -62 95 -100.5t138 -38.5q119 0 204 95l73 -73q-103 -114 -277 -114q-118 0 -212.5 62t-138.5 169h-81v64h61q-9 38 -10 70h-51v64h53q16 147 123.5 243.5t255.5 96.5q173 0 278 -115l-73 -73q-30 45 -85.5 70.5t-119.5 25.5q-103 0 -177.5 -71 t-89.5 -177h310v-64h-313q4 -44 12 -70h301v-64z"/>
<glyph horiz-adv-x="536" unicode="−" glyph-name="minus" d="M446 205h-356v84h356v-84z"/>
</font>
</defs>
</svg>
